<?xml version="1.0" encoding="UTF-8" standalone="no"?>
<svg
   xmlns:dc="http://purl.org/dc/elements/1.1/"
   xmlns:cc="http://creativecommons.org/ns#"
   xmlns:rdf="http://www.w3.org/1999/02/22-rdf-syntax-ns#"
   xmlns:svg="http://www.w3.org/2000/svg"
   xmlns="http://www.w3.org/2000/svg"
   xmlns:sodipodi="http://sodipodi.sourceforge.net/DTD/sodipodi-0.dtd"
   xmlns:inkscape="http://www.inkscape.org/namespaces/inkscape"
   version="1.1"
   id="svg2"
   xml:space="preserve"
   width="4266.6665"
   height="2666.6667"
   viewBox="0 0 4266.6665 2666.6667"
   sodipodi:docname="6340.eps"><metadata
     id="metadata8"><rdf:RDF><cc:Work
         rdf:about=""><dc:format>image/svg+xml</dc:format><dc:type
           rdf:resource="http://purl.org/dc/dcmitype/StillImage" /></cc:Work></rdf:RDF></metadata><defs
     id="defs6" /><sodipodi:namedview
     pagecolor="transparent"
     bordercolor="#666666"
     borderopacity="1"
     objecttolerance="10"
     gridtolerance="10"
     guidetolerance="10"
     inkscape:pageopacity="0"
     inkscape:pageshadow="2"
     inkscape:window-width="640"
     inkscape:window-height="480"
     id="namedview4" /><g
     id="g10"
     inkscape:groupmode="layer"
     inkscape:label="ink_ext_XXXXXX"
     transform="matrix(1.3333333,0,0,-1.3333333,0,2666.6667)"><g
       id="g12"
       transform="scale(0.1)"><path
         d="M 0,0 H 32000 V 20000 H 0 Z"
         style="fill:transparent;fill-opacity:1;fill-rule:nonzero;stroke:none"
         id="path14" /><path
         d="M 10584,12335.9 V 5175.1 l -8614.8,-30.3 c 21.63,313.1 -1396.384,4441.6 421.21,6800.2 2579.28,3348.1 4783.46,640.4 7693.09,405.3 164.4,-13 330.3,-18.7 500.5,-14.4"
         style="fill:#ebf3fa;fill-opacity:1;fill-rule:nonzero;stroke:none"
         id="path16" /><path
         d="m 30378.5,5313.6 c -5.8,-44.9 -243.8,-41.1 -481.1,-37.3 -235.5,3.8 -470.3,7.6 -476.7,-36.2 l -5823.5,-20.3 H 10584 v 7116.1 c 164.5,4.3 330.4,17.3 500.6,40.4 571.2,77.9 1169.9,274 1804.6,643.3 6569.3,3809.8 11918.2,2775.5 14921.6,-199 369.3,-366.4 704,-763.1 1001.1,-1182.9 1276.7,-1807.5 1853.7,-4059.3 1566.6,-6324.1"
         style="fill:#f3f8fc;fill-opacity:1;fill-rule:nonzero;stroke:none"
         id="path18" /><path
         d="M 23597.2,5169.4 H 10584 v 5.7 l 13013.2,44.7 5823.5,20.3 c 4.6,31.4 127,38.3 282.7,38.4 0.1,0 0.2,0 0.3,0 0,0 0.1,0 0.2,0 51.4,0 106.5,-0.8 162.2,-1.7 0.8,0 1.6,0 2.4,0 6,-0.1 12,-0.2 18,-0.3 3.6,-0.1 7.3,-0.1 10.9,-0.2 66.3,-1 132.7,-2.1 194,-2.1 155.9,0 279.3,6.9 286.9,38 0.1,0.5 0.2,0.9 0.2,1.4 v 0 0 c 7.9,62.5 15.2,124.9 21.8,187.3 29.9,282.2 46.7,564.2 49.8,844.6 0.3,22.7 0.5,45.2 0.6,67.9 0.3,-382.1 -22.8,-765.5 -72.2,-1150.3 -4.1,-32.3 -128.9,-39.4 -287,-39.4 -61.3,0 -127.7,1.1 -194,2.1 -66.3,1.1 -132.5,2.2 -193.6,2.2 -156,0 -278.6,-7 -283.2,-38.5 l -5823.5,-20.1"
         style="fill:#f3f8fc;fill-opacity:1;fill-rule:nonzero;stroke:none"
         id="path20" /><path
         d="m 29886.5,5276.5 c -6,0.1 -12,0.2 -18,0.3 6,-0.1 12,-0.2 18,-0.3 m -20.4,0.3 c -55.7,0.9 -110.8,1.7 -162.2,1.7 51.4,0 106.5,-0.8 162.2,-1.7 m -162.7,1.7 c 0.1,0 0.2,0 0.3,0 v 0 c -0.1,0 -0.2,0 -0.3,0 m 674.9,33.7 c 0.1,0.5 0.2,0.9 0.2,1.4 0,-0.5 -0.1,-0.9 -0.2,-1.4 m 0.2,1.4 c 7.9,62.4 15.2,124.9 21.8,187.3 -6.6,-62.4 -13.9,-124.8 -21.8,-187.3 m 71.6,1031.9 c 0.4,31.6 0.6,63.2 0.6,94.7 0,-8.9 0,-17.9 0,-26.8 -0.1,-22.7 -0.3,-45.2 -0.6,-67.9"
         style="fill:#eef5fb;fill-opacity:1;fill-rule:nonzero;stroke:none"
         id="path22" /><path
         d="M 27889.6,10661.6 V 5219.7 h -16805 v 4735.5 h 1288.2 v 1292.4 H 13661 v -1746 h 1042.9 v 390.1 h 1816.6 v -659.5 h 790.7 v 1481.2 h 2116.3 v 2540.2 H 21101 v -1354.8 h 381.6 v 1134.9 h 1673.5 v -1748.2 h 1516.7 v 1072.8 h 1622.1 v -1072.8 h 302.4 v -623.9 h 1292.3"
         style="fill:#e8f0fd;fill-opacity:1;fill-rule:nonzero;stroke:none"
         id="path24" /><path
         d="M 8645.31,10184.8 H 7150.95 c -68.61,0 -124.73,56.1 -124.73,124.8 v 1442.3 c 0,68.6 56.12,124.7 124.73,124.7 h 1494.36 c 68.61,0 124.73,-56.1 124.73,-124.7 v -1442.3 c 0,-68.7 -56.12,-124.8 -124.73,-124.8"
         style="fill:#c0d8fb;fill-opacity:1;fill-rule:nonzero;stroke:none"
         id="path26" /><path
         d="m 8580.58,10258.1 h -1364.9 c -62.65,0 -113.92,51.3 -113.92,113.9 v 1317.4 c 0,62.7 51.27,113.9 113.92,113.9 h 1364.9 c 62.65,0 113.92,-51.2 113.92,-113.9 V 10372 c 0,-62.6 -51.27,-113.9 -113.92,-113.9"
         style="fill:#dfebfd;fill-opacity:1;fill-rule:nonzero;stroke:none"
         id="path28" /><path
         d="m 7862.01,11648.9 c 0,20 16.17,36.1 36.12,36.1 19.95,0 36.12,-16.1 36.12,-36.1 0,-19.9 -16.17,-36.1 -36.12,-36.1 -19.95,0 -36.12,16.2 -36.12,36.1"
         style="fill:#b7d3f3;fill-opacity:1;fill-rule:nonzero;stroke:none"
         id="path30" /><path
         d="m 8153.49,11597.9 c 9.68,17.4 31.68,23.7 49.12,14 17.43,-9.7 23.71,-31.7 14.02,-49.1 -9.69,-17.5 -31.68,-23.7 -49.12,-14.1 -17.44,9.7 -23.72,31.7 -14.02,49.2"
         style="fill:#b7d3f3;fill-opacity:1;fill-rule:nonzero;stroke:none"
         id="path32" /><path
         d="m 8403.2,11399.5 c 16.77,10.8 39.12,6 49.93,-10.8 10.82,-16.8 6,-39.1 -10.77,-49.9 -16.76,-10.9 -39.12,-6 -49.93,10.7 -10.82,16.8 -5.99,39.2 10.77,50"
         style="fill:#b7d3f3;fill-opacity:1;fill-rule:nonzero;stroke:none"
         id="path34" /><path
         d="m 8526.89,11092.4 c 19.95,0 36.12,-16.2 36.12,-36.1 0,-20 -16.17,-36.1 -36.12,-36.1 -19.95,0 -36.12,16.1 -36.12,36.1 0,19.9 16.17,36.1 36.12,36.1"
         style="fill:#b7d3f3;fill-opacity:1;fill-rule:nonzero;stroke:none"
         id="path36" /><path
         d="m 8463.74,10736 c 14.1,-14.1 14.1,-36.9 0,-51 -14.11,-14.1 -36.98,-14.1 -51.09,0 -14.11,14.1 -14.11,36.9 0,51 14.11,14.2 36.98,14.2 51.09,0"
         style="fill:#b7d3f3;fill-opacity:1;fill-rule:nonzero;stroke:none"
         id="path38" /><path
         d="m 8236.9,10508.6 c 14.11,-14.1 14.11,-37 0,-51.1 -14.1,-14.1 -36.98,-14.1 -51.08,0 -14.11,14.1 -14.11,37 0,51.1 14.1,14.1 36.98,14.1 51.08,0"
         style="fill:#b7d3f3;fill-opacity:1;fill-rule:nonzero;stroke:none"
         id="path40" /><path
         d="m 7862.01,10391.4 c 0,19.9 16.17,36.1 36.12,36.1 19.95,0 36.12,-16.2 36.12,-36.1 0,-20 -16.17,-36.1 -36.12,-36.1 -19.95,0 -36.12,16.1 -36.12,36.1"
         style="fill:#b7d3f3;fill-opacity:1;fill-rule:nonzero;stroke:none"
         id="path42" /><path
         d="m 7641.62,11597.9 c -9.69,17.4 -31.68,23.7 -49.12,14 -17.44,-9.7 -23.72,-31.7 -14.02,-49.1 9.68,-17.5 31.68,-23.7 49.12,-14.1 17.43,9.7 23.71,31.7 14.02,49.2"
         style="fill:#b7d3f3;fill-opacity:1;fill-rule:nonzero;stroke:none"
         id="path44" /><path
         d="m 7391.91,11399.5 c -16.76,10.8 -39.12,6 -49.94,-10.8 -10.81,-16.8 -5.99,-39.1 10.77,-49.9 16.77,-10.9 39.13,-6 49.94,10.7 10.82,16.8 5.99,39.2 -10.77,50"
         style="fill:#b7d3f3;fill-opacity:1;fill-rule:nonzero;stroke:none"
         id="path46" /><path
         d="m 7268.22,11092.4 c -19.95,0 -36.13,-16.2 -36.13,-36.1 0,-20 16.18,-36.1 36.13,-36.1 19.95,0 36.12,16.1 36.12,36.1 0,19.9 -16.17,36.1 -36.12,36.1"
         style="fill:#b7d3f3;fill-opacity:1;fill-rule:nonzero;stroke:none"
         id="path48" /><path
         d="m 7331.37,10736 c -14.1,-14.1 -14.1,-36.9 0,-51 14.11,-14.1 36.98,-14.1 51.09,0 14.1,14.1 14.1,36.9 0,51 -14.11,14.2 -36.98,14.2 -51.09,0"
         style="fill:#b7d3f3;fill-opacity:1;fill-rule:nonzero;stroke:none"
         id="path50" /><path
         d="m 7558.2,10508.6 c -14.1,-14.1 -14.1,-37 0,-51.1 14.11,-14.1 36.99,-14.1 51.09,0 14.11,14.1 14.11,37 0,51.1 -14.1,14.1 -36.98,14.1 -51.09,0"
         style="fill:#b7d3f3;fill-opacity:1;fill-rule:nonzero;stroke:none"
         id="path52" /><path
         d="m 7888.39,11056.3 c 0,19.9 16.17,36.1 36.12,36.1 19.95,0 36.12,-16.2 36.12,-36.1 0,-20 -16.17,-36.1 -36.12,-36.1 -19.95,0 -36.12,16.1 -36.12,36.1"
         style="fill:#b7d3f3;fill-opacity:1;fill-rule:nonzero;stroke:none"
         id="path54" /><path
         d="m 7929.44,11056.3 h -9.86 v 451.3 h 9.86 v -451.3"
         style="fill:#b7d3f3;fill-opacity:1;fill-rule:nonzero;stroke:none"
         id="path56" /><path
         d="m 7929.1,11045.3 -18.27,23.3 239.24,187.8 18.26,-23.3 -239.23,-187.8"
         style="fill:#b7d3f3;fill-opacity:1;fill-rule:nonzero;stroke:none"
         id="path58" /><path
         d="M 11084.6,12376.3 V 5257.2 h -1001.3 v 7093.5 c 324.4,-26.5 657.7,-21.7 1001.3,25.6"
         style="fill:#deedff;fill-opacity:1;fill-rule:nonzero;stroke:none"
         id="path60" /><path
         d="M 28812,11637.6 V 5257.2 h -1001.3 v 7563.4 c 370.1,-366.6 704.5,-762.8 1001.3,-1183"
         style="fill:#deedff;fill-opacity:1;fill-rule:nonzero;stroke:none"
         id="path62" /><path
         d="M 31126.5,5155 H 1036.59 c -23.94,0 -43.531,19.6 -43.531,43.5 v 42.7 c 0,23.9 19.591,43.5 43.531,43.5 H 31126.5 c 23.9,0 43.5,-19.6 43.5,-43.5 v -42.7 c 0,-23.9 -19.6,-43.5 -43.5,-43.5"
         style="fill:#2e3552;fill-opacity:1;fill-rule:nonzero;stroke:none"
         id="path64" /><path
         d="M 11905.6,7770.1 H 11745 L 11941.7,5281 h 390.6 l -426.7,2489.1"
         style="fill:#b7d3f3;fill-opacity:1;fill-rule:nonzero;stroke:none"
         id="path66" /><path
         d="m 15099.4,8496.4 -34.4,-7 c -153.6,-31 -304.5,69.2 -335.6,222.7 l -36.4,180.2 c -31,153.5 69.2,304.5 222.7,335.6 l 34.5,6.9 c 153.5,31 304.5,-69.2 335.5,-222.7 l 36.4,-180.2 c 31.1,-153.5 -69.2,-304.5 -222.7,-335.5"
         style="fill:#122544;fill-opacity:1;fill-rule:nonzero;stroke:none"
         id="path68" /><path
         d="m 11745,7770.1 c 0,0 877.1,411.7 2078.7,137.8 L 11905.6,7770.1 H 11745"
         style="fill:#b7d3f3;fill-opacity:1;fill-rule:nonzero;stroke:none"
         id="path70" /><path
         d="m 12332.3,5257.2 -426.7,2512.9 c 0,0 1343.8,451.2 2386.4,0 l 620.2,-2497 -2579.9,-15.9"
         style="fill:#d2e3fc;fill-opacity:1;fill-rule:nonzero;stroke:none"
         id="path72" /><path
         d="m 21623.3,6035.3 c -23.9,-272.6 -177.8,-356.8 -245.5,-349.5 -67.7,7.2 -463.6,158.3 -472.2,102.9 -8.6,-55.5 229.7,-236.7 396.5,-245.2 0,0 -315.1,-347.5 -524.4,-247.2 -209.5,100.3 -227.3,259.3 -357.9,318.9 -130.5,59.6 -241.9,59.4 -188,-1.4 53.9,-60.8 290.1,-119.9 364.7,-251.9 17.7,-31.2 34.9,-60 48,-85.3 l -440.9,0.9 c -139.8,69.4 -257.6,165.3 -266.4,268.5 -0.6,7.9 -1.3,15.5 -1.8,22.7 -13.6,158.9 -13.6,158.9 -13.6,158.9 0,0 -226.4,264.1 -108.7,483.2 19.5,36.4 48.5,71.6 89.7,104.1 0,0 211,127.8 383.1,117.3 0,0 -133.4,-223.5 -170.9,-356.4 -13.3,-46.9 -14.6,-82.4 5.9,-93 22.5,-11.6 51.6,22.1 81.7,76.2 75.4,135.4 157.1,398.9 157.1,398.9 0,0 126.9,12.3 271.3,14.2 64.8,0.8 133.1,-0.4 195,-5.9 68.4,-6 129,-17.1 168.4,-36 0,0 -8.6,-7.1 -23.1,-19.2 -21.5,-18 -56,-47.3 -94.4,-81.2 -113.9,-100.7 -261.8,-242.8 -206.5,-255.5 44.7,-10.4 185.3,73.1 310.4,156 116.4,77.1 219.4,153.7 219.4,153.7 0,0 446.9,-76.1 423.1,-348.7"
         style="fill:#82b378;fill-opacity:1;fill-rule:nonzero;stroke:none"
         id="path74" /><path
         d="m 21403.7,6027.9 c 0,0 -1213.9,46.8 -1481.9,-300.3 0,0 -59.3,-177.6 -241.7,-339.3 l -28.5,-77.5 c 0,0 210.4,221.8 285.6,235.2 0,0 -117.7,430.1 1466.5,481.9"
         style="fill:#82b378;fill-opacity:1;fill-rule:nonzero;stroke:none"
         id="path76" /><path
         d="m 19731.1,5390.3 c -10.4,-11.4 -26,-26.9 -48.3,-47.5 l -0.5,-0.5 c -7.7,-7.1 -15.3,-14.8 -22.6,-23.1 -11.2,-12.4 -22,-26.1 -32.3,-40.6 l -56.8,0.1 c 58.4,71.9 109.4,109.6 109.4,109.6 l 0.2,0.1 c 4.4,2.7 109,65.9 50.9,1.9"
         style="fill:#82b378;fill-opacity:1;fill-rule:nonzero;stroke:none"
         id="path78" /><path
         d="m 18596.7,6179.3 c 0,0 489.7,274.2 261.2,646.4 0,0 -182.9,228.6 -378.8,287.3 0,0 104.5,-555 0,-568.1 -104.5,-13 -71.8,626.9 -71.8,626.9 0,0 -515.9,248.1 -718.3,228.5 0,0 320,-541.9 215.5,-528.9 -104.5,13.1 -463.6,561.6 -463.6,561.6 0,0 -528.9,97.9 -613.8,-215.5 -84.9,-313.4 52.2,-470.1 130.6,-489.7 78.3,-19.6 581.1,-13.1 568.1,-78.4 -13.1,-65.3 -352.6,-169.8 -542,-111 0,0 209,-515.8 483.2,-489.7 274.3,26.1 359.2,195.9 528.9,208.9 169.8,13.1 293.9,-32.6 209,-78.3 -84.9,-45.7 -372.2,-15 -509.3,-131.6 -137.2,-116.6 -248.2,-188.4 6.5,-240.6 254.6,-52.3 711.7,-19.6 803.1,176.3 91.5,195.9 91.5,195.9 91.5,195.9"
         style="fill:#a8d29f;fill-opacity:1;fill-rule:nonzero;stroke:none"
         id="path80" /><path
         d="m 17068.7,7119.6 c 0,0 1371.3,-444.1 1528,-940.3 0,0 -6.6,-222 130.6,-476.7 v -98 c 0,0 -143.7,333.1 -222.1,378.8 0,0 306.9,430.9 -1436.5,1136.2"
         style="fill:#82b378;fill-opacity:1;fill-rule:nonzero;stroke:none"
         id="path82" /><path
         d="m 18854.3,5279.7 -78.4,0.1 c -2.4,113.4 -15.5,240.6 -54.2,337.5 v 0.1 c -4.9,12.2 -10.1,23.8 -15.8,34.9 l -0.1,0.4 c -16.3,31.8 -27.3,55.3 -34.2,72.3 h -0.1 c -40.1,98.3 55.8,-22.4 55.8,-22.4 0,0 114.9,-174.6 127,-422.9"
         style="fill:#82b378;fill-opacity:1;fill-rule:nonzero;stroke:none"
         id="path84" /><path
         d="m 19375.8,6557.5 c 0,0 -645.6,361.5 -344.3,852.1 0,0 241,301.3 499.2,378.8 0,0 -137.7,-731.7 0,-748.9 137.7,-17.2 94.7,826.3 94.7,826.3 0,0 680,327.1 946.8,301.3 0,0 -421.7,-714.4 -284,-697.2 137.7,17.2 611.1,740.2 611.1,740.2 0,0 697.2,129.1 809.1,-284 111.9,-413.2 -68.8,-619.8 -172.1,-645.6 -103.3,-25.8 -766.1,-17.2 -748.9,-103.3 17.2,-86 464.8,-223.8 714.4,-146.3 0,0 -275.4,-680 -636.9,-645.5 -361.5,34.4 -473.4,258.2 -697.2,275.4 -223.8,17.2 -387.4,-43 -275.5,-103.3 111.9,-60.3 490.7,-19.7 671.4,-173.4 180.8,-153.7 327.1,-248.4 -8.6,-317.2 -335.7,-68.9 -938.2,-25.8 -1058.7,232.4 -120.5,258.2 -120.5,258.2 -120.5,258.2"
         style="fill:#a8d29f;fill-opacity:1;fill-rule:nonzero;stroke:none"
         id="path86" /><path
         d="m 21389.9,7797 c 0,0 -1807.5,-585.3 -2014.1,-1239.5 0,0 8.6,-292.7 -172.2,-628.3 V 5800 c 0,0 189.4,439 292.7,499.3 0,0 -404.6,568.1 1893.6,1497.7"
         style="fill:#82b378;fill-opacity:1;fill-rule:nonzero;stroke:none"
         id="path88" /><path
         d="m 19277.1,5958.9 -0.1,-0.3 c -9.1,-22.4 -23.6,-53.5 -45.1,-95.5 l -0.2,-0.3 c -7.4,-14.6 -14.3,-29.9 -20.6,-45.9 l -0.1,-0.1 c -61.9,-155 -74.1,-369.1 -71.8,-537.7 l -103.7,0.2 c -12.4,375.7 168.1,649.9 168.1,649.9 h 0.1 c 2.7,3.4 125.6,157.5 73.4,29.7"
         style="fill:#82b378;fill-opacity:1;fill-rule:nonzero;stroke:none"
         id="path90" /><path
         d="m 16161.8,5273.1 h -2455.4 c -36.3,87.9 -68.1,182 -96,279.8 -70,244.9 -115.4,514.7 -144.2,779 -0.4,3.3 -0.8,6.8 -1.2,10.2 -49.5,458.4 -49.8,899.3 -43.1,1164.2 3.9,153.3 9.9,247.7 10.3,252.3 v 0.1 c 5.2,2.2 10.5,4.3 15.7,6.4 130.3,54.7 255.1,101.8 374.8,142.5 l 1,0.3 c 100.6,34.3 197.5,63.9 290.7,89.4 163.8,45 316.2,77.3 457.2,99.8 166.1,26.2 316.5,38.7 451.3,41.6 6.1,0.2 12,0.2 18.1,0.4 35.6,0.6 70,0.5 103.3,-0.3 336.2,-7.2 559.8,-74.1 672.9,-118.7 15.8,-6.2 29.3,-12 40.5,-17.2 1.5,-0.6 3,-1.2 4.5,-1.9 12.8,-5.7 22.7,-10.5 29.6,-14 l 2.7,-1.5 c 3.4,-1.7 6.6,-3.5 9.7,-5.4 l 177.1,-1860.8 80.5,-846.2"
         style="fill:#2b478b;fill-opacity:1;fill-rule:nonzero;stroke:none"
         id="path92" /><path
         d="m 18608.6,5675.3 c -246,-114.2 -1709.3,-210 -1849.8,-169.6 -72.1,20.8 -373.8,286.5 -677.3,613.4 l -0.2,0.2 c -287.3,309.2 -576.8,673.2 -674.5,935.1 -200.9,538.1 -28.2,1016 -28.2,1016 0,0 373.4,1.6 525.6,-90.3 152.2,-92.2 1022.5,-1694.9 1138.8,-1737.2 116.4,-42.5 1494.9,-121.3 1652.7,-196.2 0,0 158.7,-257.2 -87.1,-371.4"
         style="fill:#2b478b;fill-opacity:1;fill-rule:nonzero;stroke:none"
         id="path94" /><path
         d="m 15040.7,8074 -0.3,-90.7 c 0,0 25.1,-283.3 -323.8,-325.2 -348.8,-42 -613.4,109.6 -604.3,328.2 31.2,169.4 65.5,285.7 67.6,425.8 0.8,52.1 -2.9,107.3 -12.7,169.7 l 676.2,14.5 199.2,-32.2 -1.9,-490.1"
         style="fill:#ea9e6a;fill-opacity:1;fill-rule:nonzero;stroke:none"
         id="path96" /><path
         d="m 15042.6,8564.1 -1.9,-490.1 c -71.7,-33.6 -152.7,-54.1 -243.6,-54.2 -310.7,-0.5 -620.1,499.6 -629.9,562 l 875.4,-17.7"
         style="fill:#d88d59;fill-opacity:1;fill-rule:nonzero;stroke:none"
         id="path98" /><path
         d="m 15082.4,8326 c 0,0 -865.7,-176.3 -967.2,364.5 -101.4,540.8 -281.5,882.3 266.9,1017.7 548.5,135.4 694.9,-50.7 772.7,-223 77.7,-172.3 150.2,-1099.4 -72.4,-1159.2"
         style="fill:#ea9e6a;fill-opacity:1;fill-rule:nonzero;stroke:none"
         id="path100" /><path
         d="m 15322.5,9887.4 c 0,0 -241.5,18.2 -526.5,141.6 -231.4,100.1 -522.8,-11 -617.4,-61.1 2.5,15.3 8.5,36.2 23,57 0,0 -42.5,-30.2 -48.7,-72.3 -4.4,-3.2 -6.3,-5.5 -5.2,-6.2 0,0 -48.2,8.7 -79.1,-5.2 0,0 21.6,3.1 29.4,-10.8 0.8,-1.5 2,-2.8 3.5,-3.9 -360.4,-174.8 -392.8,-744.7 -276.6,-876.4 139.9,-158.5 307.9,-515.5 307.9,-515.5 0,0 60.9,84.5 35.3,224.1 -25.6,139.5 95,139.7 247.2,203.4 152.2,63.7 25,241.2 158.1,349.3 133.1,108.1 621.9,45.4 615.4,127.9 181.3,66.4 133.7,429.5 133.7,448.1"
         style="fill:#8e342e;fill-opacity:1;fill-rule:nonzero;stroke:none"
         id="path102" /><path
         d="m 13706.4,5273.1 c -36.3,87.9 -68.1,182 -96,279.8 -70,244.9 -115.4,514.7 -144.2,779 -0.4,3.3 -0.8,6.8 -1.2,10.2 1.9,-0.9 5,-6 7,-3.5 95.6,116.1 356.6,243.2 672.6,-219.5 63.1,-92.1 339.6,-738.1 383.7,-846 h -821.9"
         style="fill:#233862;fill-opacity:1;fill-rule:nonzero;stroke:none"
         id="path104" /><path
         d="m 13963,5273.1 c -7.1,41.7 0.7,94.3 33.3,159.8 0,0 40.5,26.3 94.3,56.9 80.2,45.2 189.8,99.9 239.5,91.2 8.9,-1.7 20.9,-4.3 35.2,-7.7 117.8,-28.3 392.5,-112.9 434,-162.5 34.2,-40.7 80.8,-92.6 112.9,-137.7 H 13963"
         style="fill:#ea9e6a;fill-opacity:1;fill-rule:nonzero;stroke:none"
         id="path106" /><path
         d="m 14144.6,5273.1 h -2313.5 c -6.2,29.7 -6.5,57.1 1.7,77.8 69,174.3 203.7,461.2 358.8,769.1 114.1,226.5 239.2,464.4 357.2,677.1 163.9,295.4 314.1,542.5 402.3,643.8 69.5,79.7 157.4,146.6 248.9,201.7 77.7,46.8 158.1,85.2 232.2,116 v 0.1 c 5.2,2.2 10.5,4.3 15.7,6.4 161.1,65.3 288.8,93.9 288.8,93.9 0,0 1.8,-73.1 1.9,-185.4 0.5,-326.1 -12,-983.3 -116.1,-1143.6 -29,-44.7 -83,-112.2 -150.5,-191.4 -2,-2.3 -3.9,-4.5 -5.8,-6.7 -36.6,-42.9 -77.1,-89 -119.6,-136.4 -241.5,-270.5 -547.3,-588.2 -584.5,-626.8 -2.7,-2.6 -3.9,-4 -3.9,-4 h 4.5 l 648.7,-9 199,-2.8 412.5,-5.6 c 28.5,-12.3 50.7,-32.5 67.7,-57.5 39.9,-58.4 52.2,-143.4 54,-216.7"
         style="fill:#2b478b;fill-opacity:1;fill-rule:nonzero;stroke:none"
         id="path108" /><path
         d="m 18608.6,5675.3 c -246,-114.2 -1709.3,-210 -1849.8,-169.6 -72.1,20.8 -373.8,286.5 -677.3,613.4 15,-2 153.8,229.4 786.7,-324.2 0,0 165.7,-73.8 616.7,-32.5 451.1,41.3 1030.3,56.5 1123.7,-87.1"
         style="fill:#233862;fill-opacity:1;fill-rule:nonzero;stroke:none"
         id="path110" /><path
         d="m 17171.1,5277.5 h -1672.8 c 0,73.6 59.7,133.3 133.4,133.3 h 1539.4 v -133.3"
         style="fill:#b24940;fill-opacity:1;fill-rule:nonzero;stroke:none"
         id="path112" /><path
         d="m 17166.3,7099.3 h 2586.2 l -620.3,-1821.8 h -2603 l 637.1,1821.8"
         style="fill:#b24940;fill-opacity:1;fill-rule:nonzero;stroke:none"
         id="path114" /><path
         d="m 19790.6,7099.3 -620.3,-1821.8 h -2603 l 637.1,1821.8 h 2586.2"
         style="fill:#c65447;fill-opacity:1;fill-rule:nonzero;stroke:none"
         id="path116" /><path
         d="m 18396.3,6205.2 c -16.1,-69.6 -85.5,-126 -155.1,-126 -69.7,0 -113.1,56.4 -97,126 16.1,69.7 85.5,126.1 155.1,126.1 69.7,0 113.1,-56.4 97,-126.1"
         style="fill:#f9ddbf;fill-opacity:1;fill-rule:nonzero;stroke:none"
         id="path118" /><path
         d="m 19790.6,7099.3 -620.3,-1821.8 h -1210.9 l 1450.4,1821.8 h 380.8"
         style="fill:#b24940;fill-opacity:1;fill-rule:nonzero;stroke:none"
         id="path120" /><path
         d="m 14366.8,8496.4 -34.4,-7 c -153.6,-31 -304.5,69.2 -335.6,222.7 l -36.4,180.2 c -31,153.5 69.2,304.5 222.7,335.6 l 34.5,6.9 c 153.5,31 304.5,-69.2 335.5,-222.7 l 36.4,-180.2 c 31.1,-153.5 -69.2,-304.5 -222.7,-335.5"
         style="fill:#122544;fill-opacity:1;fill-rule:nonzero;stroke:none"
         id="path122" /><path
         d="m 14098.5,9145.4 c -23,41.7 -56.9,377.1 35.3,644.1 44.5,129.1 116.6,202.7 207,252.4 32.7,17.9 69.3,27.5 106.6,27.5 l 90.9,-1.5 c -299.2,-126.6 -368.6,-804.3 -345.3,-876.6 -0.7,2.3 -1.6,3.9 -2.3,5.1 l -92.2,-51"
         style="fill:#122544;fill-opacity:1;fill-rule:nonzero;stroke:none"
         id="path124" /><path
         d="m 14971.7,8439.9 c -502.9,0 -751.7,397.4 -754.2,401.4 l 45,27.5 -22.5,-13.8 22.4,13.8 c 2.4,-3.8 236.7,-376.2 709.3,-376.2 3.1,0 6.3,0 9.5,0.1 l 0.5,-52.7 c -3.3,0 -6.7,-0.1 -10,-0.1"
         style="fill:#122544;fill-opacity:1;fill-rule:nonzero;stroke:none"
         id="path126" /><path
         d="m 14285.7,8672.8 -17.1,-3.5 c -76.5,-15.4 -151.7,34.5 -167.2,111 l -18.1,89.8 c -15.5,76.5 34.5,151.7 110.9,167.2 l 17.2,3.4 c 76.5,15.5 151.7,-34.5 167.2,-110.9 l 18.1,-89.8 c 15.5,-76.5 -34.5,-151.7 -111,-167.2"
         style="fill:#2b478b;fill-opacity:1;fill-rule:nonzero;stroke:none"
         id="path128" /><path
         d="m 15034.1,8422.4 h -47.4 c -24.1,0 -43.9,19.8 -43.9,43.9 0,24.2 19.8,43.9 43.9,43.9 h 47.4 c 24.2,0 43.9,-19.7 43.9,-43.9 0,-24.1 -19.7,-43.9 -43.9,-43.9"
         style="fill:#122544;fill-opacity:1;fill-rule:nonzero;stroke:none"
         id="path130" /><path
         d="m 4974.97,9209.3 c 0,0 -421.88,-215.7 -114.46,-679 0,0 -362.45,-41.9 -453.61,62.3 0,0 13.74,-45.6 29.77,-67.8 0,0 -351.13,46 -476.94,179.1 -125.82,133 266.51,1903.3 1201.75,1541 0,0 831.52,-75.8 595.54,-1013.1 -235.98,-937.2 74.04,-989.3 74.04,-989.3 0,0 -93.36,-28 -134.99,-21 0,0 -56.93,33.4 -63.3,69 0,0 3.14,-54.8 15.93,-74.3 0,0 -339.97,24.5 -485.86,178.9 -145.88,154.4 -268.47,626.2 -187.87,814.2"
         style="fill:#8e342e;fill-opacity:1;fill-rule:nonzero;stroke:none"
         id="path132" /><path
         d="m 5577.14,8746.2 -33.77,-4.7 c -150.4,-20.8 -290.52,85.1 -311.39,235.5 l -24.49,176.6 c -20.86,150.4 85.12,290.5 235.52,311.4 l 33.77,4.7 c 150.39,20.8 290.52,-85.2 311.38,-235.6 l 24.5,-176.5 c 20.87,-150.4 -85.12,-290.5 -235.52,-311.4"
         style="fill:#ed7d2b;fill-opacity:1;fill-rule:nonzero;stroke:none"
         id="path134" /><path
         d="M 5673.49,7331 C 5547.62,7233.8 5467.97,6883 5265,6825.1 4504.18,6607.9 4095.78,7511.4 3962.18,7952.4 c 101.93,65.4 200.04,83.7 256.76,93.4 55.3,9.5 113.61,16.8 161.95,21.7 83.07,70.6 198.07,348.2 205.08,770.4 l 36.72,-7.9 615.23,-135.1 c 0,0 -17.94,-194.3 -22.27,-377.3 -3.25,-143.2 -7.88,-177.4 3.16,-194.5 47.87,-7.8 104.25,-130.2 104.25,-130.2 l 0.33,-0.5 c 8.83,-13 199.63,-293.5 350.1,-661.4"
         style="fill:#ffb27d;fill-opacity:1;fill-rule:nonzero;stroke:none"
         id="path136" /><path
         d="m 5237.97,8694.8 c 0,0 -18.07,-194.1 -22.27,-377.3 -345.52,16.9 -521.75,336.1 -593.02,512.4 l 615.29,-135.1"
         style="fill:#ed985f;fill-opacity:1;fill-rule:nonzero;stroke:none"
         id="path138" /><path
         d="m 8367.2,5504.1 c 0,0 -361.79,-13.3 -754.67,-14.7 -46.46,-0.2 -93.53,-0.2 -140.35,0 -319.96,1.4 -634.44,12.6 -768.2,47.1 C 6573.26,5570.1 6070.4,5911 5668,6323.8 l -0.12,0.3 c -31.21,-74.4 -54.75,-131.2 -55.36,-135.7 -11.83,-92.7 -31.58,-185.6 -55.48,-274.8 -91.21,-340.2 -243.26,-625.7 -248.5,-635.6 l -215.47,0.3 -1682.24,2.5 c 0,0 317.77,489.4 232.41,1743.3 -2.19,31.7 292.9,1043.4 292.9,1043.4 0,0 229.24,40.1 494.21,61.5 24.99,-22.8 76.45,-688.4 407.87,-726.9 53.9,-6.2 399.71,-534.4 399.71,-534.4 l 104.75,539.5 -123.89,715.9 c 159,-46.5 246.19,-63.3 378.37,-116.1 89.99,-36 164.49,-102.4 210.95,-187.4 231.56,-423.1 983.05,-1787.9 1059.75,-1819.8 71.82,-29.7 342.52,-83.9 628.95,-136.2 h 0.25 c 383.24,-69.9 794.66,-136.4 794.66,-136.4 l 75.48,-223.1"
         style="fill:#d2e3fc;fill-opacity:1;fill-rule:nonzero;stroke:none"
         id="path140" /><path
         d="m 5428.64,5277.9 -120.47,-0.4 0.37,0.5 z"
         style="fill:#d2e3fc;fill-opacity:1;fill-rule:nonzero;stroke:none"
         id="path142" /><path
         d="m 5340.51,8509.9 c 0,0 -818.09,16 -800.26,525.3 17.83,509.3 -75.75,854.4 447.33,865.7 523.09,11.3 617.71,-186.6 653.11,-358 35.4,-171.5 -86.92,-1024.1 -300.18,-1033"
         style="fill:#ffb27d;fill-opacity:1;fill-rule:nonzero;stroke:none"
         id="path144" /><path
         d="m 7612.53,5489.4 c -46.46,-0.2 -93.53,-0.2 -140.35,0 -319.96,1.4 -634.44,12.6 -768.2,47.1 C 6573.26,5570.1 6070.4,5911 5668,6323.8 l -0.12,0.3 c 0,0 84.87,324.9 121.45,379.3 36.58,54.5 180.95,-474.2 518.23,-689.3 337.28,-215.1 865.15,-365.8 1121.45,-304.8 172.66,41.1 190.35,-114.2 183.52,-219.9"
         style="fill:#b7d3f3;fill-opacity:1;fill-rule:nonzero;stroke:none"
         id="path146" /><path
         d="m 5179.83,8793.3 c 0,0 5.22,-60.9 139.37,-70.6 0,0 112.64,-8.1 117.32,57.5 0,0 -102.53,61.6 -256.69,13.1"
         style="fill:#ffffff;fill-opacity:1;fill-rule:nonzero;stroke:none"
         id="path148" /><path
         d="m 5224.11,8587.4 c -464.83,146.8 -578.84,586.8 -579.94,591.3 l 49.58,12.3 -24.79,-6.2 24.77,6.2 c 1.06,-4.2 108.95,-416.9 545.8,-554.9 2.92,-1 5.84,-1.9 8.8,-2.8 l -14.88,-48.8 c -3.11,0.9 -6.24,1.9 -9.34,2.9"
         style="fill:#122544;fill-opacity:1;fill-rule:nonzero;stroke:none"
         id="path150" /><path
         d="m 5276.77,8552.9 -43.84,13.9 c -22.31,7 -34.81,31.1 -27.76,53.4 7.05,22.3 31.08,34.8 53.41,27.7 l 43.83,-13.8 c 22.33,-7 34.82,-31.1 27.77,-53.4 -7.05,-22.3 -31.09,-34.8 -53.41,-27.8"
         style="fill:#ed7d2b;fill-opacity:1;fill-rule:nonzero;stroke:none"
         id="path152" /><path
         d="m 5386.98,9968.5 c 0,0 -209.46,-620.4 -523.64,-725.7 -314.17,-105.2 -418.38,19.4 -418.38,19.4 0,0 231.54,212.6 258.09,556.7 0,0 507.62,403.3 683.93,149.6"
         style="fill:#8e342e;fill-opacity:1;fill-rule:nonzero;stroke:none"
         id="path154" /><path
         d="m 4995.82,9785.9 c 0,0 426.55,23.9 554.01,-97.6 91.94,-87.5 89.77,-133.3 96.92,-250 0,0 186.53,287.7 -5.4,489.1 -203.52,213.5 -645.53,-141.5 -645.53,-141.5"
         style="fill:#8e342e;fill-opacity:1;fill-rule:nonzero;stroke:none"
         id="path156" /><path
         d="m 5368.81,9902.8 c 0,0 -106.81,-593.6 -497.31,-809.2 0,0 378.21,387.1 384.92,774.4 6.71,387.3 112.39,34.8 112.39,34.8"
         style="fill:#8e342e;fill-opacity:1;fill-rule:nonzero;stroke:none"
         id="path158" /><path
         d="m 3959.71,8703.9 c 125.77,-133.1 476.9,-179.2 476.9,-179.2 -16.06,22.2 -29.67,67.9 -29.67,67.9 180.47,-146.3 623.65,-40 623.65,-40 -353.54,78 -239.05,588.2 -118.82,610 70.09,384.8 209.06,863.8 274.14,1079 -15.64,2.5 -24.51,3.3 -24.51,3.3 -935.15,362.3 -1327.46,-1408 -1201.69,-1541"
         style="fill:#8e342e;fill-opacity:1;fill-rule:nonzero;stroke:none"
         id="path160" /><path
         d="m 4727.66,8798.5 -33.76,-4.7 c -150.4,-20.8 -290.53,85.2 -311.4,235.6 l -24.49,176.5 c -20.86,150.4 85.12,290.5 235.52,311.4 l 33.76,4.7 c 150.41,20.9 290.53,-85.1 311.4,-235.5 l 24.49,-176.6 c 20.86,-150.4 -85.12,-290.5 -235.52,-311.4"
         style="fill:#ed7d2b;fill-opacity:1;fill-rule:nonzero;stroke:none"
         id="path162" /><path
         d="m 4506.72,9442.5 c -20.07,37.7 50.34,330.1 153.88,556.9 50.03,109.6 176.33,256.4 266.46,294.2 32.6,13.7 75.86,8.1 111.13,0.1 25.64,-5.8 97.52,-39.3 97.52,-39.3 -296.28,-92.4 -553.74,-713.2 -535.07,-777.5 -0.57,2 -1.39,3.4 -1.97,4.5 l -91.95,-38.9"
         style="fill:#ed7d2b;fill-opacity:1;fill-rule:nonzero;stroke:none"
         id="path164" /><path
         d="m 4659.73,8974.1 -16.82,-2.3 c -74.94,-10.4 -144.76,42.4 -155.15,117.3 l -12.2,88 c -10.4,74.9 42.4,144.7 117.34,155.1 l 16.83,2.4 c 74.93,10.4 144.75,-42.5 155.14,-117.4 l 12.21,-88 c 10.39,-74.9 -42.41,-144.7 -117.35,-155.1"
         style="fill:#f99746;fill-opacity:1;fill-rule:nonzero;stroke:none"
         id="path166" /><path
         d="m 6644.82,5799 c 0,0 350.81,20.2 384.92,1.8 55.36,-29.9 243.8,-151.2 273.34,-186.5 29.54,-35.2 106.87,-176.7 106.87,-176.7 0,0 -33.48,-9.3 -48.6,4.3 -15.13,13.5 -129.57,135.2 -129.57,135.2 l 117.58,-178.6 c 0,0 -40.65,1.8 -56.78,19.5 -16.12,17.7 -125.99,129.5 -125.99,129.5 l -37.44,7.3 c 0,0 38.11,-30.5 58.8,-58.2 20.69,-27.7 34.39,-57.4 34.39,-57.4 0,0 -33.51,5.6 -43.95,10.6 -10.44,5 -108.96,91.3 -108.96,91.3 l 52.22,-71.3 c 0,0 -35.21,1.7 -46.77,9.6 -11.56,7.8 -88.31,78.5 -101.93,78.3 -13.62,-0.1 -111.58,3.9 -153.64,26.2 -42.07,22.3 -174.14,73.4 -174.14,73.4 l -0.35,141.7"
         style="fill:#ffb27d;fill-opacity:1;fill-rule:nonzero;stroke:none"
         id="path168" /><path
         d="m 4478.66,8226.6 c 0,0 -234.61,-68.4 -288.09,-122.3 0,0 245.26,-626.9 598.88,-919.6 l 94.51,67.1 v -152.5 l 354.01,-231.6 c 0,0 -777.45,1169.3 -759.31,1358.9"
         style="fill:#b7d3f3;fill-opacity:1;fill-rule:nonzero;stroke:none"
         id="path170" /><path
         d="m 5557.04,5913.6 c -91.21,-340.2 -243.26,-625.7 -248.5,-635.6 l 120.1,-0.1 -120.47,-0.4 h -1117.6 l 129.42,0.8 c -3.05,11.4 189,532 -129.42,745.4 -318.99,213.8 -434.66,739.3 -434.66,739.3 l 1015,248 c 0,0 418.24,-610.3 537.26,-726.6 91.38,-89.3 304.35,-96 304.35,-96 l -55.48,-274.8"
         style="fill:#b7d3f3;fill-opacity:1;fill-rule:nonzero;stroke:none"
         id="path172" /><path
         d="m 5218.81,8123.1 c 0,0 107.97,-853 19.16,-1255.4 0,0 144.91,266.2 165.23,315 l -24.39,146.3 93.48,-32.5 c 0,0 -82.45,680.1 -157.06,799.3 -74.61,119.3 -102.09,130.8 -102.09,130.8 l 5.67,-103.5"
         style="fill:#b7d3f3;fill-opacity:1;fill-rule:nonzero;stroke:none"
         id="path174" /><path
         d="m 8367.2,5504.1 c 0,0 -452.63,-16.8 -895.02,-14.7 -109.74,170.2 24.63,374.2 24.63,374.2 h 0.25 c 383.24,-69.9 794.66,-136.4 794.66,-136.4 l 75.48,-223.1"
         style="fill:#ffb27d;fill-opacity:1;fill-rule:nonzero;stroke:none"
         id="path176" /><path
         d="M 8410.12,5277.5 H 6737.34 c 0,73.6 59.71,133.3 133.35,133.3 h 1539.43 v -133.3"
         style="fill:#ed7d2b;fill-opacity:1;fill-rule:nonzero;stroke:none"
         id="path178" /><path
         d="m 10991.5,7099.3 -620.3,-1821.8 h -2603 l 637.14,1821.8 h 2586.16"
         style="fill:#ed7d2b;fill-opacity:1;fill-rule:nonzero;stroke:none"
         id="path180" /><path
         d="m 10991.5,7099.3 -614.6,-1805 -5.7,-16.8 H 7806.24 l 637.13,1821.8 h 2548.13"
         style="fill:#f99746;fill-opacity:1;fill-rule:nonzero;stroke:none"
         id="path182" /><path
         d="m 9635.29,6205.2 c -16.07,-69.6 -85.52,-126 -155.13,-126 -69.61,0 -113.01,56.4 -96.94,126 16.07,69.7 85.53,126.1 155.13,126.1 69.61,0 113.01,-56.4 96.94,-126.1"
         style="fill:#ffc397;fill-opacity:1;fill-rule:nonzero;stroke:none"
         id="path184" /><path
         d="m 10991.5,7099.3 -614.6,-1805 H 9198.42 l 1436.98,1805 h 356.1"
         style="fill:#ed7d2b;fill-opacity:1;fill-rule:nonzero;stroke:none"
         id="path186" /><path
         d="m 6645.21,5657.3 c 0,0 -861.12,-75.2 -1337.04,-54 v 467.6 C 5619.96,5984.8 6644.84,5799 6644.84,5799 l 0.37,-141.7"
         style="fill:#ffb27d;fill-opacity:1;fill-rule:nonzero;stroke:none"
         id="path188" /><path
         d="m 4190.57,8104.3 c 0,0 -492.45,-11.2 -644.88,-175.8 -152.42,-164.6 151.24,-1095 151.24,-1095 0,0 917.93,-1124.2 1377.13,-1203.5 0,0 200.69,-27.4 294.36,-28.9 0,0 -91.85,267.4 78.98,435.2 0,0 -196.62,55 -204.75,79.4 -8.13,24.4 -1052.08,1988.6 -1052.08,1988.6"
         style="fill:#d2e3fc;fill-opacity:1;fill-rule:nonzero;stroke:none"
         id="path190" /><path
         d="m 24770.1,10223.1 c 0,0 -498.8,185.6 -810.4,-178.7 -178.7,-208.9 -1321.2,-2387 -1307.6,-2577.7 13.7,-190.7 122.6,-286 122.6,-286 0,0 -47.6,166.8 -11.9,253.7 0,0 -23,-293.7 158.4,-418.8 94.4,-65.2 2446.4,62.4 2650.8,347.3 444.4,619.3 -526.1,939.8 -502.3,1608.9 13.9,388 395,1212.2 -299.6,1251.3"
         style="fill:#2c3a64;fill-opacity:1;fill-rule:nonzero;stroke:none"
         id="path192" /><path
         d="m 25245.4,8835.8 -33.4,-6.7 c -148.8,-30.1 -295.2,67.1 -325.3,215.9 l -35.3,174.7 c -30.1,148.9 67.1,295.2 215.9,325.3 l 33.4,6.8 c 148.9,30 295.3,-67.1 325.3,-216 l 35.3,-174.7 c 30.1,-148.8 -67.1,-295.2 -215.9,-325.3"
         style="fill:#ed7d2b;fill-opacity:1;fill-rule:nonzero;stroke:none"
         id="path194" /><path
         d="m 27379.4,5280.8 h -1560.5 c -264.7,420.2 -497.4,987.5 -551.6,1429.3 -25.9,209.6 -11.5,391 58.6,514.9 218,385 -127.8,837 -127.8,837 0,0 476.1,-134.7 586.7,-527.2 112.8,-399.8 415.4,-1729.7 415.4,-1729.7 l 1158.7,-238.4 c 54.5,-136.2 20.5,-285.9 20.5,-285.9"
         style="fill:#f99746;fill-opacity:1;fill-rule:nonzero;stroke:none"
         id="path196" /><path
         d="m 27379.4,5280.8 h -1560.5 c -264.7,420.2 -497.4,987.5 -551.6,1429.3 l 231.5,70.9 c 0,0 292.8,-1336.8 463.1,-1357.3 170.2,-20.4 1417.5,-142.9 1417.5,-142.9"
         style="fill:#ed7d2b;fill-opacity:1;fill-rule:nonzero;stroke:none"
         id="path198" /><path
         d="m 25428.6,7429.2 c -119.7,-104.7 -274.1,-197.4 -473.1,-267.6 -746,-263.6 -1112.7,350.7 -1273.2,782.7 97.7,71.5 194.5,95.8 250.5,109 54.6,12.8 112.4,23.7 160.3,31.6 78.6,75.6 176.3,359.7 157.4,781.5 l 37.1,-5.6 622.4,-97 c 0,0 -6,-195 0.9,-377.9 5.6,-143.2 19.3,-279 49.9,-309.2 48.3,-4.9 77.3,-8.3 77.3,-8.3 l 0.4,-0.6 c 9.6,-12.3 217.3,-280.6 390.1,-638.6"
         style="fill:#ffb27d;fill-opacity:1;fill-rule:nonzero;stroke:none"
         id="path200" /><path
         d="m 24910,8763.7 c 0,0 -6.1,-194.9 1,-377.9 -345.9,-4.4 -541.4,303.3 -623.4,474.9 l 622.4,-97"
         style="fill:#ed985f;fill-opacity:1;fill-rule:nonzero;stroke:none"
         id="path202" /><path
         d="m 25725.2,6781 c -1.7,-13.4 -168,-554.2 -169.8,-567.7 -57.7,-452.8 -162.2,-935.9 -162.2,-935.9 l -228.5,0.5 -1508,2.9 c 0,0 181.9,549 -298,1390.6 -15.8,27.6 -32.2,55.5 -49.4,83.7 -68.3,112.2 362.9,1312.4 362.9,1312.4 0,0 188.9,33.4 453.7,54.8 25.1,-22.9 209,-696 542,-716.5 434.7,-26.8 269.9,723.2 269.9,723.2 177.1,-35.5 240.9,-48.5 468.2,-157.4 0,0 328.4,-1116.7 319.2,-1190.6"
         style="fill:#f99746;fill-opacity:1;fill-rule:nonzero;stroke:none"
         id="path204" /><path
         d="m 25023.7,8585.4 c 0,0 -817.5,-34.3 -831,475.2 -13.5,509.4 -128.1,848.1 393.3,891.5 521.4,43.5 628,-148.2 673.8,-317.2 45.9,-168.9 -23.7,-1027.4 -236.1,-1049.5"
         style="fill:#ffb27d;fill-opacity:1;fill-rule:nonzero;stroke:none"
         id="path206" /><path
         d="m 24845.9,8858.5 c 0,0 9,-60.6 143.5,-61.9 0,0 112.9,-1.2 113.6,64.5 0,0 -106.2,55.2 -257.1,-2.6"
         style="fill:#ffffff;fill-opacity:1;fill-rule:nonzero;stroke:none"
         id="path208" /><path
         d="m 24902.8,8655.6 c -473,118 -613.8,550.2 -615.2,554.5 l 48.7,15.3 -24.3,-7.6 24.3,7.7 c 1.3,-4.1 134.4,-409.4 578.9,-520.3 3,-0.8 5.9,-1.5 8.9,-2.2 l -11.8,-49.7 c -3.2,0.8 -6.4,1.5 -9.5,2.3"
         style="fill:#122544;fill-opacity:1;fill-rule:nonzero;stroke:none"
         id="path210" /><path
         d="m 24957.5,8624.5 -44.6,11.1 c -22.7,5.7 -36.7,28.9 -31,51.6 5.6,22.7 28.9,36.7 51.6,31 l 44.6,-11.1 c 22.7,-5.7 36.6,-28.9 31,-51.6 -5.7,-22.7 -28.9,-36.7 -51.6,-31"
         style="fill:#2c3a64;fill-opacity:1;fill-rule:nonzero;stroke:none"
         id="path212" /><path
         d="m 24560.5,10269.1 c 0,0 526.4,82.2 744.2,-356.1 165.8,-333.6 27.5,-541.9 -37.5,-605.7 0,0 -85.9,479.1 -246.8,520 0,0 -103.7,31.6 -174.5,-50.6 -70.7,-82.2 -173,-448.9 -290.5,-505 0,0 -364.7,-90.1 -382.6,37.2 -17.9,127.3 -7.9,523.5 84,587.3 91.9,63.9 303.7,372.9 303.7,372.9"
         style="fill:#2c3a64;fill-opacity:1;fill-rule:nonzero;stroke:none"
         id="path214" /><path
         d="m 24394.3,8835.8 -33.4,-6.7 c -148.8,-30.1 -295.2,67.1 -325.3,215.9 l -35.3,174.7 c -30.1,148.9 67.1,295.2 215.9,325.3 l 33.4,6.8 c 148.9,30 295.3,-67.1 325.3,-216 l 35.3,-174.7 c 30.1,-148.8 -67.1,-295.2 -215.9,-325.3"
         style="fill:#ed7d2b;fill-opacity:1;fill-rule:nonzero;stroke:none"
         id="path216" /><path
         d="m 24134.2,9465.1 c -22.4,36.3 -55.2,328.6 34.2,561.3 43.2,112.5 113,176.7 200.7,220 31.6,15.6 67.2,24 103.3,24 l 88.1,-1.3 c -290,-110.4 -357.3,-701 -334.7,-764 -0.7,2 -1.6,3.4 -2.2,4.4 l -89.4,-44.4"
         style="fill:#ed7d2b;fill-opacity:1;fill-rule:nonzero;stroke:none"
         id="path218" /><path
         d="m 24315.7,9006.9 -16.6,-3.4 c -74.2,-14.9 -147.1,33.5 -162.1,107.6 l -17.6,87.1 c -15,74.1 33.4,147.1 107.6,162.1 l 16.6,3.3 c 74.2,15 147.1,-33.4 162.1,-107.6 l 17.6,-87 c 15,-74.2 -33.4,-147.1 -107.6,-162.1"
         style="fill:#f99746;fill-opacity:1;fill-rule:nonzero;stroke:none"
         id="path220" /><path
         d="m 23656.7,5280.8 c 0,0 181.9,549 -298,1390.6 l 178.7,223.3 c 0,0 316.5,-896.4 712,-1157.8 394.8,-260.8 859.2,-206.3 915.3,-459 l -1508,2.9"
         style="fill:#ed7d2b;fill-opacity:1;fill-rule:nonzero;stroke:none"
         id="path222" /><path
         d="m 23672.2,8067.5 c 0,0 -325.4,-28.3 -543.3,-413.3 -218,-385 -631.7,-1823.6 -631.7,-2373.4 h 1741.7 c 0,0 34.1,149.7 -20.4,285.9 l -1077.8,208 c 0,0 648.7,963.3 655.6,1378.8 6.8,415.4 -124.1,914 -124.1,914"
         style="fill:#f99746;fill-opacity:1;fill-rule:nonzero;stroke:none"
         id="path224" /><path
         d="m 24249.4,5457.7 c 0,0 339.4,33.2 395.6,17.9 56.2,-15.3 217,-81.7 252.8,-104.7 35.7,-23 104.7,-90.1 104.7,-90.1 0,0 -43.4,-8.2 -69,-2.5 -25.5,5.8 -102.1,10.9 -122.5,12.6 -20.5,1.7 -93.7,-13.4 -93.7,-13.4 h -526.1 l 58.2,180.2"
         style="fill:#ffb27d;fill-opacity:1;fill-rule:nonzero;stroke:none"
         id="path226" /><path
         d="m 27322.6,5277.5 h -1672.8 c 0,73.6 59.7,133.3 133.4,133.3 h 1539.4 v -133.3"
         style="fill:#233862;fill-opacity:1;fill-rule:nonzero;stroke:none"
         id="path228" /><path
         d="m 29904,7099.3 -620.3,-1821.8 h -2603 l 637.1,1821.8 H 29904"
         style="fill:#233862;fill-opacity:1;fill-rule:nonzero;stroke:none"
         id="path230" /><path
         d="m 29904,7099.3 -614.6,-1805 -5.7,-16.8 h -2565 l 637.2,1821.8 H 29904"
         style="fill:#2b478b;fill-opacity:1;fill-rule:nonzero;stroke:none"
         id="path232" /><path
         d="m 28547.8,6205.2 c -16.1,-69.6 -85.6,-126 -155.2,-126 -69.6,0 -113,56.4 -96.9,126 16.1,69.7 85.5,126.1 155.1,126.1 69.6,0 113,-56.4 97,-126.1"
         style="fill:#f99746;fill-opacity:1;fill-rule:nonzero;stroke:none"
         id="path234" /><path
         d="m 29904,7099.3 -614.6,-1805 h -1178.5 l 1437,1805 h 356.1"
         style="fill:#233862;fill-opacity:1;fill-rule:nonzero;stroke:none"
         id="path236" /></g></g></svg>
