<?xml version="1.0" standalone="no"?>
<!DOCTYPE svg PUBLIC "-//W3C//DTD SVG 20010904//EN"
 "http://www.w3.org/TR/2001/REC-SVG-20010904/DTD/svg10.dtd">
<svg version="1.0" xmlns="http://www.w3.org/2000/svg"
 width="512.000000pt" height="512.000000pt" viewBox="0 0 512.000000 512.000000"
 preserveAspectRatio="xMidYMid meet">
<metadata>
Created by potrace 1.16, written by Peter Selinger 2001-2019
</metadata>
<g transform="translate(0.000000,512.000000) scale(0.100000,-0.100000)"
fill="#000000" stroke="none">
<path d="M2450 5109 c-41 -7 -2418 -801 -2441 -814 -24 -15 -7 -252 61 -842
38 -335 72 -635 75 -668 4 -33 9 -67 12 -75 3 -8 7 -31 8 -50 2 -19 17 -150
35 -290 17 -140 53 -448 81 -685 27 -236 52 -439 54 -450 13 -74 24 -118 31
-125 9 -8 69 -40 319 -170 243 -126 377 -196 475 -247 52 -28 149 -78 215
-113 66 -34 161 -84 210 -110 50 -26 144 -75 210 -110 66 -34 161 -84 210
-110 50 -26 144 -76 210 -110 66 -34 152 -80 192 -101 110 -59 121 -57 342 60
226 120 317 168 486 256 72 37 181 94 243 126 61 33 163 85 225 118 215 112
373 194 497 259 69 35 181 94 250 130 69 36 155 80 192 99 37 19 69 42 72 51
2 9 17 121 32 247 15 127 30 232 34 235 3 3 42 291 85 640 43 349 82 637 85
640 9 7 170 1293 170 1356 l0 51 -402 127 c-222 70 -423 132 -447 137 -24 5
-49 13 -55 18 -6 4 -33 15 -61 24 -89 28 -551 176 -895 287 -695 225 -705 228
-810 209z m119 -585 c17 -14 31 -34 31 -44 0 -10 4 -20 8 -22 11 -4 82 -105
82 -115 0 -5 16 -30 35 -57 19 -27 35 -53 35 -58 0 -5 20 -36 45 -70 25 -34
45 -66 45 -70 0 -11 53 -92 63 -96 4 -2 7 -11 7 -20 0 -9 14 -33 30 -52 16
-19 44 -61 60 -92 17 -32 35 -60 40 -63 13 -8 13 -72 0 -80 -6 -4 -24 -33 -41
-66 -16 -33 -38 -68 -49 -79 -11 -11 -34 -47 -52 -81 -70 -129 -67 -124 -120
-200 -16 -21 -28 -42 -28 -45 0 -4 -16 -31 -35 -60 -19 -29 -35 -56 -35 -61 0
-10 -72 -117 -82 -121 -5 -2 -8 -10 -8 -17 0 -27 -51 -75 -79 -75 -39 0 -65
22 -96 85 -16 30 -31 55 -35 55 -4 0 -13 15 -21 33 -7 17 -15 34 -18 37 -13
11 -71 101 -71 110 0 5 -18 36 -40 69 -22 33 -40 64 -40 68 0 5 -18 32 -40 62
-22 29 -40 57 -40 63 0 5 -15 33 -34 61 -19 29 -40 63 -46 77 -6 14 -24 43
-40 65 -40 55 -38 78 13 140 11 14 67 106 111 182 19 34 44 71 56 83 11 11 20
26 20 34 0 8 6 21 13 28 16 17 67 96 67 103 0 7 113 183 130 203 6 7 18 28 26
47 14 34 54 64 86 65 9 0 30 -12 47 -26z m-806 -938 c37 -41 47 -55 47 -67 0
-7 16 -36 35 -65 19 -29 35 -57 35 -62 0 -5 17 -33 39 -63 21 -30 48 -74 61
-99 13 -25 31 -56 41 -69 11 -13 19 -31 20 -40 0 -9 16 -36 35 -61 19 -25 41
-61 50 -80 9 -19 22 -42 29 -50 24 -28 85 -154 85 -176 0 -13 -12 -30 -27 -40
-26 -17 -61 -19 -516 -22 l-489 -4 -23 22 c-14 13 -33 39 -43 59 -49 92 -81
150 -111 195 -17 28 -31 54 -31 60 0 5 -11 23 -24 40 -21 28 -40 62 -121 211
-11 23 -38 66 -58 96 -20 31 -37 62 -37 68 0 7 -9 24 -20 38 -31 39 -23 90 17
109 19 9 322 18 741 22 l243 2 22 -24z m2530 -14 c32 -33 34 -61 7 -90 -11
-12 -20 -27 -20 -35 0 -8 -8 -25 -19 -38 -10 -13 -35 -55 -55 -93 -20 -38 -44
-75 -52 -83 -8 -9 -29 -42 -47 -75 -18 -33 -43 -79 -57 -103 -14 -24 -33 -58
-44 -77 -10 -18 -25 -37 -32 -41 -8 -4 -14 -16 -14 -27 0 -10 -6 -25 -13 -32
-8 -7 -32 -47 -54 -88 -64 -120 -22 -113 -570 -100 -281 6 -479 15 -495 21
-14 6 -29 20 -31 31 -6 21 29 94 92 192 17 28 31 54 31 58 0 5 18 37 40 72 22
35 40 68 40 74 0 6 6 17 13 24 20 20 67 96 67 108 0 6 18 38 40 70 22 32 40
63 40 68 0 5 18 36 40 68 22 33 40 64 40 71 0 6 12 21 26 32 26 21 36 21 513
21 l487 0 27 -28z m-463 -1138 c17 -14 44 -53 60 -86 16 -33 39 -71 50 -85 11
-14 20 -34 20 -44 0 -11 4 -19 10 -19 5 0 19 -17 30 -37 35 -64 54 -96 88
-151 17 -29 32 -55 32 -58 0 -4 20 -36 44 -73 24 -36 47 -76 50 -88 4 -13 13
-29 21 -36 7 -8 27 -42 44 -76 33 -65 34 -89 3 -123 -14 -17 -51 -18 -512 -18
-558 0 -503 -8 -549 79 -13 24 -32 52 -42 62 -11 11 -19 26 -19 34 0 13 -30
64 -65 110 -8 10 -15 25 -15 32 0 13 -39 77 -64 106 -9 9 -16 23 -16 31 0 7
-8 24 -19 37 -10 13 -34 53 -53 89 -19 36 -58 105 -87 153 -61 105 -64 130
-18 154 33 17 238 25 799 31 l176 2 32 -26z m-1606 -9 c31 -28 33 -47 8 -83
-10 -15 -31 -51 -46 -81 -15 -30 -34 -61 -42 -68 -8 -8 -14 -21 -14 -30 0 -8
-14 -33 -31 -55 -18 -22 -44 -61 -58 -88 -14 -26 -39 -72 -55 -101 -16 -30
-46 -78 -67 -108 -22 -30 -39 -58 -39 -63 0 -5 -16 -33 -35 -62 -19 -29 -35
-60 -35 -70 0 -9 -4 -16 -9 -16 -5 0 -13 -9 -16 -20 -4 -11 -20 -27 -36 -35
-25 -14 -86 -14 -506 -4 -507 12 -503 11 -518 59 -6 19 42 123 81 175 12 17
34 53 49 80 59 111 101 183 123 212 12 17 22 35 22 40 0 5 18 35 40 68 22 33
40 65 40 72 0 11 37 73 60 100 5 7 10 19 10 26 0 8 14 29 32 46 l32 31 491 0
492 0 27 -25z m325 -180 c16 -8 36 -30 45 -49 9 -19 27 -48 40 -63 13 -15 38
-55 56 -88 18 -33 38 -67 46 -75 7 -8 17 -26 23 -40 6 -14 29 -50 51 -80 22
-30 40 -60 40 -66 0 -6 9 -22 21 -35 12 -13 34 -49 49 -80 16 -30 35 -61 44
-68 21 -18 96 -156 96 -179 0 -10 -11 -33 -25 -52 -14 -19 -25 -39 -26 -44 0
-6 -16 -31 -35 -56 -19 -25 -41 -59 -49 -77 -8 -17 -28 -52 -45 -76 -16 -25
-30 -49 -30 -55 0 -5 -20 -37 -45 -71 -25 -34 -45 -65 -45 -69 0 -5 -16 -31
-35 -58 -19 -27 -35 -55 -35 -62 0 -7 -4 -18 -10 -25 -38 -46 -80 -109 -80
-119 0 -25 -53 -68 -84 -68 -38 1 -58 15 -81 59 -9 19 -30 52 -46 74 -16 22
-29 44 -29 49 0 9 -35 62 -57 85 -6 7 -15 23 -19 35 -7 24 -51 94 -71 116 -7
7 -13 20 -13 28 0 8 -13 32 -29 52 -16 20 -40 57 -54 82 -38 71 -94 162 -121
199 -15 19 -26 44 -26 57 0 25 37 94 50 94 4 0 13 13 18 29 6 16 26 51 45 78
19 27 38 59 41 71 4 12 22 39 39 61 28 34 47 65 107 170 34 59 75 121 81 121
4 0 10 11 13 24 3 14 12 31 20 38 7 8 27 38 44 68 27 47 60 79 85 80 4 0 21
-7 36 -15z"/>
</g>
</svg>
